<svg width="1848" height="846" viewBox="0 0 1848 846" fill="none" xmlns="http://www.w3.org/2000/svg">
<path d="M11 814.2C11.9 814.9 12.8 815.5 13.7 816.2C16.1 814.7 18.9 813.5 21 811.7C65.6 773.6 110.6 735.8 154.5 697.1C251.3 611.7 347.7 525.8 444.1 440C473.4 413.9 502.4 387.5 531.6 361.2C544.2 349.9 548.9 350.6 555.5 365.2C578.8 416.4 602.2 467.6 625.3 518.9C672 622 718.4 725.2 765.1 828.3C766.3 830.8 769.3 834.6 771.2 834.5C774.1 834.3 777.5 831.7 779.5 829.3C788.8 817.9 797.6 806.1 806.6 794.5C827 768.1 847.2 741.7 867.7 715.4C878.3 701.8 879.4 688.3 871.9 672.8C858.5 645.2 846 617.2 834.2 589C802.1 512.1 770.9 434.9 738.8 357.9C704.8 276.3 670.4 194.9 636.1 113.5C628.2 94.8 620.2 76.1 612.1 57.5C608.3 48.8 604.6 48.4 597.9 55.8C594.4 59.6 591.1 63.6 587.9 67.6C517.9 157.5 448.1 247.5 377.9 337.3C336.7 390 294.4 442 253.3 494.8C197.2 566.9 141.7 639.5 86 711.9C64.5 739.8 43 767.8 21.7 795.9C17.6 801.7 14.6 808.2 11 814.2ZM1838.3 295.6C1837.3 294.9 1836.4 294.2 1835.4 293.5C1833.5 294.9 1831.6 296.3 1829.9 297.8C1731.6 383.3 1633.4 468.9 1535.1 554.4C1520.3 567.3 1517.7 566.6 1510.6 549.6C1480 476.5 1449.2 403.4 1418.5 330.3C1391.6 266.2 1364.7 202.1 1337.7 138.1C1321.1 98.7 1304.5 59.3 1287.7 19.9C1283.6 10.3 1279.4 7.80001 1268.1 7.90001C1213.5 8.00001 1158.8 8.10001 1104.2 8.20001C1087 8.30001 1085.4 10.4 1090.8 24.6C1091.4 26.2 1092 27.7 1092.6 29.3C1125 104.8 1157.5 180.4 1189.9 255.9C1214.8 313.9 1239.1 372 1264.4 429.9C1283.7 473.9 1304.8 517.3 1323.7 561.5C1346.3 614 1367.3 667 1389.3 719.6C1404.1 755.1 1419.1 790.5 1434.3 825.8C1435.8 829.3 1439.1 832.1 1442.5 836.4C1575.2 655.1 1706.8 475.3 1838.3 295.6ZM1056 836.6C1058.7 833.3 1060.5 831.3 1062 829.2C1084.3 799.2 1106.8 769.3 1128.9 739.1C1165.3 689.2 1201.4 639.1 1237.8 589.1C1243 582 1244.1 574.8 1240 567.1C1238.7 564.5 1237.5 561.9 1236.4 559.3C1229.8 543.9 1223.3 528.5 1216.8 513.1C1212.8 503.6 1209.3 502.8 1201.2 509.7C1195.5 514.6 1189.9 519.6 1184.2 524.5C1170.3 536.4 1156.5 548.4 1142.4 560.1C1135.9 565.5 1132.7 564.7 1128.7 557.5C1128 556.2 1127.4 554.9 1126.8 553.6C1101.9 493.9 1077.2 434.1 1052 374.4C1002.4 256.3 952.5 138.2 902.6 20C898.5 10.4 895.1 8.10001 883.9 8.10001C828 8.10001 772 8.20001 716 8.30001C704.3 8.30001 702 11.5 706.4 21.4C719.4 51.5 732.6 81.5 745.5 111.6C790.8 217.5 836.2 323.4 881.2 429.4C918.5 517.4 955.2 605.6 992.5 693.6C1011.3 738 1030.7 782.3 1050 826.6C1051.3 829.7 1053.5 832.5 1056 836.6Z" fill="black"/>
</svg>
