<svg width="161" height="118" viewBox="0 0 161 118" fill="none" xmlns="http://www.w3.org/2000/svg">
<path d="M7.70001 89.8C7.80001 89.9 7.80001 89.9 7.90001 90C8.10001 89.9 8.30001 89.8 8.50001 89.6C12 86.6 15.6 83.6 19 80.6C26.6 73.9 34.2 67.1 41.8 60.3C44.1 58.2 46.4 56.2 48.7 54.1C49.7 53.2 50.1 53.3 50.6 54.4C52.4 58.4 54.3 62.5 56.1 66.5C59.8 74.6 63.4 82.8 67.1 90.9C67.2 91.1 67.4 91.4 67.6 91.4C67.8 91.4 68.1 91.2 68.3 91C69 90.1 69.7 89.2 70.4 88.3C72 86.2 73.6 84.1 75.2 82.1C76 81 76.1 80 75.5 78.7C74.4 76.5 73.5 74.3 72.5 72.1C70 66 67.5 59.9 65 53.9C62.3 47.5 59.6 41 56.9 34.6C56.3 33.1 55.6 31.7 55 30.2C54.7 29.5 54.4 29.5 53.9 30.1C53.6 30.4 53.4 30.7 53.1 31C47.6 38.1 42.1 45.2 36.5 52.3C33.2 56.5 29.9 60.6 26.7 64.7C22.3 70.4 17.9 76.1 13.5 81.8C11.8 84 10.1 86.2 8.40001 88.4C8.20001 88.8 8.00001 89.4 7.70001 89.8ZM151.9 48.9C151.8 48.8 151.7 48.8 151.7 48.7C151.6 48.8 151.4 48.9 151.3 49C143.5 55.7 135.8 62.5 128 69.2C126.8 70.2 126.6 70.2 126.1 68.8C123.7 63 121.3 57.3 118.8 51.5C116.7 46.4 114.6 41.4 112.4 36.3C111.1 33.2 109.8 30.1 108.5 27C108.2 26.2 107.8 26 107 26C102.7 26 98.4 26 94.1 26C92.7 26 92.6 26.2 93 27.3C93 27.4 93.1 27.5 93.1 27.7C95.7 33.7 98.2 39.6 100.8 45.6C102.8 50.2 104.7 54.8 106.7 59.3C108.2 62.8 109.9 66.2 111.4 69.7C113.2 73.8 114.8 78 116.6 82.2C117.8 85 119 87.8 120.2 90.6C120.3 90.9 120.6 91.1 120.8 91.4C131.1 77.3 141.5 63.1 151.9 48.9ZM90.2 91.6C90.4 91.3 90.6 91.2 90.7 91C92.5 88.6 94.2 86.3 96 83.9C98.9 80 101.7 76 104.6 72.1C105 71.5 105.1 71 104.8 70.4C104.7 70.2 104.6 70 104.5 69.8C104 68.6 103.5 67.4 103 66.2C102.7 65.5 102.4 65.4 101.8 65.9C101.3 66.3 100.9 66.7 100.5 67.1C99.4 68 98.3 69 97.2 69.9C96.7 70.3 96.4 70.3 96.1 69.7C96 69.6 96 69.5 96 69.4C94 64.7 92.1 60 90.1 55.3C86.2 46 82.2 36.6 78.3 27.3C78 26.5 77.7 26.4 76.8 26.4C72.4 26.4 68 26.4 63.6 26.4C62.7 26.4 62.5 26.6 62.8 27.4C63.8 29.8 64.9 32.1 65.9 34.5C69.5 42.9 73.1 51.2 76.6 59.6C79.5 66.5 82.4 73.5 85.4 80.4C86.9 83.9 88.4 87.4 89.9 90.9C89.8 91 90 91.3 90.2 91.6Z" fill="white"/>
</svg>
