<svg width="336" height="118" viewBox="0 0 336 118" fill="none" xmlns="http://www.w3.org/2000/svg">
<path d="M34.5 65.8C28.4 65.8 22.2 65.8 16.1 65.9C14.2 69.7 12.3 73.6 10.5 77.4C10.2 77.4 10 77.4 9.7 77.4C14.4 64.6 19 51.7 23.7 38.9H27.1C31.9 51.7 36.7 64.5 41.5 77.4C41.2 77.4 40.9 77.4 40.5 77.4C39.4 75.6 38.4 73.6 37.3 71.6C36.4 69.6 35.4 67.7 34.5 65.8ZM16.9 63.8H33.8L25.3 42.8L16.9 63.8Z" fill="white"/>
<path d="M180.1 39.1L180 64.9C180 67.5 179.4 69.7 178.2 71.6C177.1 73.5 175.4 74.9 173.4 75.9C171.3 76.9 168.9 77.4 166.3 77.4C162.2 77.4 158.9 76.3 156.5 74.1C154 71.9 152.8 68.9 152.7 65L152.8 38.9H156.1L156 64.5C156 65.5 156.2 68.9 158.8 71.9C159.4 72.6 162.2 75.8 166.5 75.7C170.7 75.6 173.3 72.7 174 71.9C176.6 68.9 176.8 65.5 176.8 64.5L176.9 38.8L180.1 39.1Z" fill="white"/>
<path d="M215.3 77.1C214.7 77.1 214 77.1 213.4 77.1C205.5 66.3 197.7 55.4 189.8 44.6C189.5 55.4 189.1 66.2 188.7 77C188.2 77 187.8 77 187.3 77C187 64.4 186.7 51.7 186.4 39.1H189.7L212 71.6L212.1 39.1H215.4L215.3 77.1Z" fill="white"/>
<path d="M244.4 58.9L226.2 58.8C226.2 64.2 226.3 69.5 226.3 74.9C233.1 75.2 240 75.4 246.8 75.7C246.8 76.1 246.9 76.5 246.9 76.9C238.9 76.9 230.8 77 222.8 77L222.9 39.1L246.9 39.2V41.9L226.2 41.8V56.1L244.4 56.2V58.9Z" fill="white"/>
<path d="M111.6 76.8C111.1 76.8 110.7 76.8 110.2 76.8C109.9 64.1 109.6 51.5 109.3 38.8H112.5C112.2 51.5 111.9 64.2 111.6 76.8Z" fill="white"/>
<path d="M80.8 61.8C80.4 66.9 80 72.1 79.6 77.2C79.3 77.2 78.9 77.2 78.6 77.3C78.3 64.6 78 52 77.7 39.3H90.7C94.7 39.3 97.8 40.3 100.1 42.4C102.4 44.4 103.5 47.2 103.5 50.7C103.5 54.3 102.4 57 100.2 59C98 60.9 94.8 61.9 90.6 61.9L80.8 61.8ZM80.8 59.1H90.5C93.6 59.1 96 58.4 97.6 56.9C99.2 55.4 100.1 53.4 100.1 50.7C100.1 48.1 99.3 46 97.7 44.4C96.1 42.8 93.8 42 90.8 42H80.9L80.8 59.1Z" fill="white"/>
<path d="M50.1 61.8C49.7 66.9 49.3 72.1 48.9 77.2C48.6 77.2 48.2 77.2 47.9 77.3C47.6 64.6 47.3 52 47 39.3H60C64 39.3 67.1 40.3 69.4 42.4C71.7 44.4 72.8 47.2 72.8 50.7C72.8 54.3 71.7 57 69.5 59C67.3 60.9 64.1 61.9 59.9 61.9L50.1 61.8ZM50.1 59.1H59.8C62.9 59.1 65.3 58.4 66.9 56.9C68.5 55.4 69.4 53.4 69.4 50.7C69.4 48.1 68.6 46 67 44.4C65.4 42.8 63.1 42 60.1 42H50.2L50.1 59.1Z" fill="white"/>
<path d="M256.2 77.1C255.7 77.1 255.3 77.1 254.8 77.1C254.5 64.4 254.2 51.8 253.9 39.1H257.1C256.8 51.8 256.5 64.5 256.2 77.1Z" fill="white"/>
<path d="M291.8 42H278.8C278.4 53.8 278 65.5 277.6 77.3C277.2 77.3 276.7 77.3 276.3 77.3C276.1 65.5 275.8 53.8 275.6 42H262.6V39.3L291.8 39.4V42Z" fill="white"/>
<path d="M312.3 60.1L324 39.4H327.7L313.9 63C313.6 67.8 313.4 72.5 313.1 77.3C312.6 77.3 312.1 77.3 311.7 77.3C311.4 72.5 311.1 67.7 310.7 63L297.1 39.2H300.9L312.3 60.1Z" fill="white"/>
<path d="M148.5 42H135.5C135.1 53.8 134.7 65.5 134.3 77.3C133.9 77.3 133.4 77.3 133 77.3C132.8 65.5 132.5 53.8 132.3 42H119.3V39.3L148.5 39.4V42Z" fill="white"/>
</svg>
